<?xml version="1.0" encoding="UTF-8" standalone="no"?>
<!-- Created with Inkscape (http://www.inkscape.org/) -->

<svg
   xmlns:dc="http://purl.org/dc/elements/1.1/"
   xmlns:cc="http://creativecommons.org/ns#"
   xmlns:rdf="http://www.w3.org/1999/02/22-rdf-syntax-ns#"
   xmlns:svg="http://www.w3.org/2000/svg"
   xmlns="http://www.w3.org/2000/svg"
   xmlns:sodipodi="http://sodipodi.sourceforge.net/DTD/sodipodi-0.dtd"
   xmlns:inkscape="http://www.inkscape.org/namespaces/inkscape"
   sodipodi:docname="New document 1"
   inkscape:version="0.48.0 r9654"
   version="1.1"
   id="svg2"
   height="400"
   width="531.49603">
  <sodipodi:namedview
     id="base"
     pagecolor="#ffffff"
     bordercolor="#666666"
     borderopacity="1.0"
     inkscape:pageopacity="0.0"
     inkscape:pageshadow="2"
     inkscape:zoom="1.1321709"
     inkscape:cx="142.60351"
     inkscape:cy="264.14305"
     inkscape:document-units="px"
     inkscape:current-layer="layer1"
     showgrid="false"
     units="cm"
     inkscape:window-width="50"
     inkscape:window-height="50"
     inkscape:window-x="-4"
     inkscape:window-y="-4"
     inkscape:window-maximized="1" />
  <defs
     id="defs4" />
  <metadata
     id="metadata7">
    <rdf:RDF>
      <cc:Work
         rdf:about="">
        <dc:format>image/svg+xml</dc:format>
        <dc:type
           rdf:resource="http://purl.org/dc/dcmitype/StillImage" />
        <dc:title></dc:title>
      </cc:Work>
    </rdf:RDF>
  </metadata>
  <g
     inkscape:label="Layer 1"
     inkscape:groupmode="layer"
     id="layer1"
     transform="translate(0,-520.86482)">
    <g
       id="g3959">
  
      <path
         id="blueWave"
         d="m 9.1794485,800.40467 c 21.1152125,0 42.2304235,-16.00002 63.3456355,-16.00002 1.46e-4,0 2.93e-4,0 4.39e-4,0 21.115065,2.2e-4 42.230137,16.00002 63.345197,16.00002 1.5e-4,0 2.9e-4,0 4.4e-4,0 21.11506,-2.2e-4 42.23014,-16.00002 63.3452,-16.00002 1.5e-4,0 2.9e-4,0 4.4e-4,0 21.11506,2.2e-4 42.23013,16.00002 63.34519,16.00002 1.5e-4,0 2.9e-4,0 4.4e-4,0 21.11506,-2.2e-4 42.23014,-16.00002 63.3452,-16.00002 1.5e-4,0 2.9e-4,0 4.4e-4,0 21.11506,2.2e-4 42.23013,16.00002 63.34519,16.00002 1.5e-4,0 2.9e-4,0 4.4e-4,0 21.11506,-2.2e-4 42.23014,-16.00002 63.3452,-16.00002 1.5e-4,0 2.9e-4,0 4.4e-4,0 21.11506,2.2e-4 42.23013,16.00002 63.34519,16.00002 0,1.1e-4 0,2.1e-4 0,3.2e-4 0,7.72201 0,15.44402 0,23.16608 -1.5e-4,0 -2.9e-4,0 -4.4e-4,0 -21.11506,-2.2e-4 -42.23013,-16 -63.34519,-16 -1.5e-4,0 -2.9e-4,0 -4.4e-4,0 -21.11506,2.2e-4 -42.23014,16 -63.3452,16 -1.5e-4,0 -2.9e-4,0 -4.4e-4,0 -21.11506,-2.2e-4 -42.23013,-16 -63.34519,-16 -1.5e-4,0 -2.9e-4,0 -4.4e-4,0 -21.11506,2.2e-4 -42.23014,16 -63.3452,16 -1.5e-4,0 -2.9e-4,0 -4.4e-4,0 -21.11506,-2.2e-4 -42.23013,-16 -63.34519,-16 -1.5e-4,0 -2.9e-4,0 -4.4e-4,0 -21.11506,2.2e-4 -42.23014,16 -63.3452,16 -1.5e-4,0 -2.9e-4,0 -4.4e-4,0 -21.11506,-2.2e-4 -42.230131,-16 -63.345196,-16 -1.46e-4,0 -2.93e-4,0 -4.39e-4,0 -21.115066,2.2e-4 -42.23013,16 -63.3451965,16 0,-10e-5 0,-2.1e-4 0,-3.2e-4 0,-7.72206 0,-15.44407 0,-23.16608 0,0 0,0 0,0"
         style="fill:#2a7fff;fill-opacity:1;stroke:none"
         inkscape:connector-curvature="0" />
     
  
    </g>
  </g>
</svg>
